<mxfile host="app.diagrams.net" agent="Mozilla/5.0 (Windows NT 10.0; Win64; x64) AppleWebKit/537.36 (KHTML, like Gecko) Chrome/131.0.0.0 Safari/537.36" version="24.8.9">
  <diagram name="Page-1" id="c7558073-3199-34d8-9f00-42111426c3f3">
    <mxGraphModel dx="2049" dy="2395" grid="1" gridSize="10" guides="1" tooltips="1" connect="1" arrows="1" fold="1" page="1" pageScale="1" pageWidth="826" pageHeight="1169" background="none" math="0" shadow="0">
      <root>
        <mxCell id="0" />
        <mxCell id="1" parent="0" />
        <mxCell id="91" value="Certificates,&#xa;system&#xa;libraries" style="text;spacingTop=-5;align=center" parent="1" vertex="1">
          <mxGeometry x="70" y="370.0000000000002" width="30" height="20" as="geometry" />
        </mxCell>
        <mxCell id="Eqk65JBAvaqVF8tpkQBq-96" value="NotFound" style="whiteSpace=wrap;align=center;verticalAlign=middle;fontStyle=1;strokeWidth=3;fillColor=#FFFFCC" vertex="1" parent="1">
          <mxGeometry x="330" y="-20.000000000000114" width="90" height="60" as="geometry" />
        </mxCell>
        <mxCell id="Eqk65JBAvaqVF8tpkQBq-98" value="&lt;p style=&quot;margin: 0px; margin-top: 4px; text-align: center; text-decoration: underline;&quot;&gt;&lt;strong&gt;TheHeader&lt;/strong&gt;&lt;/p&gt;&lt;hr&gt;&lt;p style=&quot;margin: 0px; margin-left: 8px;&quot;&gt;XXX&lt;/p&gt;" style="verticalAlign=middle;align=center;overflow=fill;fontSize=12;fontFamily=Helvetica;html=1;rounded=1;fontStyle=1;strokeWidth=3;fillColor=#E6FFCC" vertex="1" parent="1">
          <mxGeometry x="69.99999999999991" y="-20" width="110" height="90" as="geometry" />
        </mxCell>
        <mxCell id="Eqk65JBAvaqVF8tpkQBq-99" value="IndexPage" style="whiteSpace=wrap;align=center;verticalAlign=middle;fontStyle=1;strokeWidth=3;fillColor=#FFFFCC" vertex="1" parent="1">
          <mxGeometry x="483" y="-20.000000000000114" width="90" height="60" as="geometry" />
        </mxCell>
        <mxCell id="Eqk65JBAvaqVF8tpkQBq-100" value="TripList" style="whiteSpace=wrap;align=center;verticalAlign=middle;fontStyle=1;strokeWidth=3;fillColor=#FFFFCC" vertex="1" parent="1">
          <mxGeometry x="434.25" y="209.9999999999999" width="90" height="60" as="geometry" />
        </mxCell>
        <mxCell id="Eqk65JBAvaqVF8tpkQBq-101" value="TripView" style="whiteSpace=wrap;align=center;verticalAlign=middle;fontStyle=1;strokeWidth=3;fillColor=#FFFFCC" vertex="1" parent="1">
          <mxGeometry x="170" y="539.9999999999999" width="90" height="60" as="geometry" />
        </mxCell>
        <mxCell id="Eqk65JBAvaqVF8tpkQBq-102" value="TripAdd" style="whiteSpace=wrap;align=center;verticalAlign=middle;fontStyle=1;strokeWidth=3;fillColor=#FFFFCC" vertex="1" parent="1">
          <mxGeometry x="434" y="539.9999999999999" width="90" height="60" as="geometry" />
        </mxCell>
        <mxCell id="Eqk65JBAvaqVF8tpkQBq-103" value="TripEdit" style="whiteSpace=wrap;align=center;verticalAlign=middle;fontStyle=1;strokeWidth=3;fillColor=#FFFFCC" vertex="1" parent="1">
          <mxGeometry x="574" y="539.9999999999999" width="90" height="60" as="geometry" />
        </mxCell>
        <mxCell id="Eqk65JBAvaqVF8tpkQBq-104" value="TripViewPrint" style="whiteSpace=wrap;align=center;verticalAlign=middle;fontStyle=1;strokeWidth=3;fillColor=#FFFFCC" vertex="1" parent="1">
          <mxGeometry x="304" y="539.9999999999999" width="90" height="60" as="geometry" />
        </mxCell>
        <mxCell id="Eqk65JBAvaqVF8tpkQBq-105" value="UserAuth" style="whiteSpace=wrap;align=center;verticalAlign=middle;fontStyle=1;strokeWidth=3;fillColor=#FFFFCC" vertex="1" parent="1">
          <mxGeometry x="620" y="-20.000000000000114" width="90" height="60" as="geometry" />
        </mxCell>
        <mxCell id="Eqk65JBAvaqVF8tpkQBq-106" value="&lt;p style=&quot;margin: 0px; margin-top: 4px; text-align: center; text-decoration: underline;&quot;&gt;&lt;strong&gt;TripActions&lt;/strong&gt;&lt;/p&gt;&lt;hr&gt;&lt;p style=&quot;margin: 0px; margin-left: 8px;&quot;&gt;XXX&lt;/p&gt;" style="verticalAlign=middle;align=center;overflow=fill;fontSize=12;fontFamily=Helvetica;html=1;rounded=1;fontStyle=1;strokeWidth=3;fillColor=#E6FFCC" vertex="1" parent="1">
          <mxGeometry x="424.2499999999999" y="310" width="110" height="90" as="geometry" />
        </mxCell>
        <mxCell id="Eqk65JBAvaqVF8tpkQBq-107" value="&lt;p style=&quot;margin: 0px; margin-top: 4px; text-align: center; text-decoration: underline;&quot;&gt;&lt;strong&gt;LineView&lt;/strong&gt;&lt;/p&gt;&lt;hr&gt;&lt;p style=&quot;margin: 0px; margin-left: 8px;&quot;&gt;XXX&lt;/p&gt;" style="verticalAlign=middle;align=center;overflow=fill;fontSize=12;fontFamily=Helvetica;html=1;rounded=1;fontStyle=1;strokeWidth=3;fillColor=#E6FFCC" vertex="1" parent="1">
          <mxGeometry x="283.2499999999999" y="790" width="110" height="90" as="geometry" />
        </mxCell>
        <mxCell id="Eqk65JBAvaqVF8tpkQBq-108" value="&lt;p style=&quot;margin: 0px; margin-top: 4px; text-align: center; text-decoration: underline;&quot;&gt;&lt;strong&gt;TripForm&lt;/strong&gt;&lt;/p&gt;&lt;hr&gt;&lt;p style=&quot;margin: 0px; margin-left: 8px;&quot;&gt;XXX&lt;/p&gt;" style="verticalAlign=middle;align=center;overflow=fill;fontSize=12;fontFamily=Helvetica;html=1;rounded=1;fontStyle=1;strokeWidth=3;fillColor=#E6FFCC" vertex="1" parent="1">
          <mxGeometry x="426.2499999999999" y="790" width="110" height="90" as="geometry" />
        </mxCell>
        <mxCell id="Eqk65JBAvaqVF8tpkQBq-109" value="&lt;p style=&quot;margin: 0px; margin-top: 4px; text-align: center; text-decoration: underline;&quot;&gt;&lt;strong&gt;LineActions&lt;/strong&gt;&lt;/p&gt;&lt;hr&gt;&lt;p style=&quot;margin: 0px; margin-left: 8px;&quot;&gt;XXX&lt;/p&gt;" style="verticalAlign=middle;align=center;overflow=fill;fontSize=12;fontFamily=Helvetica;html=1;rounded=1;fontStyle=1;strokeWidth=3;fillColor=#E6FFCC" vertex="1" parent="1">
          <mxGeometry x="619.9999999999999" y="790" width="110" height="90" as="geometry" />
        </mxCell>
        <mxCell id="Eqk65JBAvaqVF8tpkQBq-110" value="&lt;p style=&quot;margin: 0px; margin-top: 4px; text-align: center; text-decoration: underline;&quot;&gt;&lt;strong&gt;LineForm&lt;/strong&gt;&lt;/p&gt;&lt;hr&gt;&lt;p style=&quot;margin: 0px; margin-left: 8px;&quot;&gt;XXX&lt;/p&gt;" style="verticalAlign=middle;align=center;overflow=fill;fontSize=12;fontFamily=Helvetica;html=1;rounded=1;fontStyle=1;strokeWidth=3;fillColor=#E6FFCC" vertex="1" parent="1">
          <mxGeometry x="619.9999999999999" y="1110" width="110" height="90" as="geometry" />
        </mxCell>
        <mxCell id="Eqk65JBAvaqVF8tpkQBq-111" value="" style="elbow=horizontal;strokeColor=#990000;strokeWidth=2;exitX=0.5;exitY=1;exitDx=0;exitDy=0;entryX=0.5;entryY=0;entryDx=0;entryDy=0;" edge="1" parent="1" source="Eqk65JBAvaqVF8tpkQBq-101" target="Eqk65JBAvaqVF8tpkQBq-107">
          <mxGeometry width="100" height="100" relative="1" as="geometry">
            <mxPoint x="304.25" y="830" as="sourcePoint" />
            <mxPoint x="304.25" y="899" as="targetPoint" />
          </mxGeometry>
        </mxCell>
        <mxCell id="Eqk65JBAvaqVF8tpkQBq-112" value="&lt;p style=&quot;margin: 0px; margin-top: 4px; text-align: center; text-decoration: underline;&quot;&gt;&lt;strong&gt;TripFull&lt;/strong&gt;&lt;/p&gt;&lt;hr&gt;&lt;p style=&quot;margin: 0px; margin-left: 8px;&quot;&gt;XXX&lt;/p&gt;" style="verticalAlign=middle;align=center;overflow=fill;fontSize=12;fontFamily=Helvetica;html=1;rounded=1;fontStyle=1;strokeWidth=3;fillColor=#E6FFCC" vertex="1" parent="1">
          <mxGeometry x="96.74999999999989" y="790" width="110" height="90" as="geometry" />
        </mxCell>
        <mxCell id="Eqk65JBAvaqVF8tpkQBq-113" value="" style="elbow=horizontal;strokeColor=#990000;strokeWidth=2;entryX=0.5;entryY=0;entryDx=0;entryDy=0;exitX=0.5;exitY=1;exitDx=0;exitDy=0;" edge="1" parent="1" source="Eqk65JBAvaqVF8tpkQBq-101" target="Eqk65JBAvaqVF8tpkQBq-112">
          <mxGeometry width="100" height="100" relative="1" as="geometry">
            <mxPoint x="323.25" y="610" as="sourcePoint" />
            <mxPoint x="348.25" y="800" as="targetPoint" />
          </mxGeometry>
        </mxCell>
        <mxCell id="Eqk65JBAvaqVF8tpkQBq-114" value="" style="elbow=horizontal;strokeColor=#990000;strokeWidth=2;exitX=0.5;exitY=1;exitDx=0;exitDy=0;entryX=0.5;entryY=0;entryDx=0;entryDy=0;" edge="1" parent="1" source="Eqk65JBAvaqVF8tpkQBq-104" target="Eqk65JBAvaqVF8tpkQBq-107">
          <mxGeometry width="100" height="100" relative="1" as="geometry">
            <mxPoint x="334.25" y="620" as="sourcePoint" />
            <mxPoint x="348.25" y="800" as="targetPoint" />
          </mxGeometry>
        </mxCell>
        <mxCell id="Eqk65JBAvaqVF8tpkQBq-115" value="" style="elbow=horizontal;strokeColor=#990000;strokeWidth=2;exitX=0.5;exitY=1;exitDx=0;exitDy=0;entryX=0.5;entryY=0;entryDx=0;entryDy=0;" edge="1" parent="1" source="Eqk65JBAvaqVF8tpkQBq-102" target="Eqk65JBAvaqVF8tpkQBq-108">
          <mxGeometry width="100" height="100" relative="1" as="geometry">
            <mxPoint x="468.25" y="620" as="sourcePoint" />
            <mxPoint x="348.25" y="800" as="targetPoint" />
          </mxGeometry>
        </mxCell>
        <mxCell id="Eqk65JBAvaqVF8tpkQBq-116" value="" style="elbow=horizontal;strokeColor=#990000;strokeWidth=2;exitX=0.5;exitY=1;exitDx=0;exitDy=0;entryX=0.5;entryY=0;entryDx=0;entryDy=0;" edge="1" parent="1" source="Eqk65JBAvaqVF8tpkQBq-103" target="Eqk65JBAvaqVF8tpkQBq-108">
          <mxGeometry width="100" height="100" relative="1" as="geometry">
            <mxPoint x="598.25" y="620" as="sourcePoint" />
            <mxPoint x="491.25" y="800" as="targetPoint" />
          </mxGeometry>
        </mxCell>
        <mxCell id="Eqk65JBAvaqVF8tpkQBq-117" value="" style="elbow=horizontal;strokeColor=#990000;strokeWidth=2;exitX=0.5;exitY=1;exitDx=0;exitDy=0;entryX=0.5;entryY=0;entryDx=0;entryDy=0;" edge="1" parent="1" source="Eqk65JBAvaqVF8tpkQBq-133" target="Eqk65JBAvaqVF8tpkQBq-110">
          <mxGeometry width="100" height="100" relative="1" as="geometry">
            <mxPoint x="608.25" y="630" as="sourcePoint" />
            <mxPoint x="501.25" y="810" as="targetPoint" />
          </mxGeometry>
        </mxCell>
        <mxCell id="Eqk65JBAvaqVF8tpkQBq-118" value="" style="elbow=horizontal;strokeColor=#990000;strokeWidth=2;exitX=0.5;exitY=1;exitDx=0;exitDy=0;entryX=0.5;entryY=0;entryDx=0;entryDy=0;" edge="1" parent="1" source="Eqk65JBAvaqVF8tpkQBq-103" target="Eqk65JBAvaqVF8tpkQBq-109">
          <mxGeometry width="100" height="100" relative="1" as="geometry">
            <mxPoint x="618.25" y="640" as="sourcePoint" />
            <mxPoint x="511.25" y="820" as="targetPoint" />
          </mxGeometry>
        </mxCell>
        <mxCell id="Eqk65JBAvaqVF8tpkQBq-121" value="App.vue" style="shape=process;whiteSpace=wrap;align=center;verticalAlign=middle;size=0.0475;fontStyle=1;strokeWidth=3;fillColor=#FFCCCC" vertex="1" parent="1">
          <mxGeometry x="279.2499999999999" y="110" width="400" height="50" as="geometry" />
        </mxCell>
        <mxCell id="Eqk65JBAvaqVF8tpkQBq-122" value="" style="elbow=horizontal;strokeColor=#990000;strokeWidth=2;exitX=0.5;exitY=0;exitDx=0;exitDy=0;entryX=1;entryY=0.5;entryDx=0;entryDy=0;" edge="1" parent="1" source="Eqk65JBAvaqVF8tpkQBq-121" target="Eqk65JBAvaqVF8tpkQBq-98">
          <mxGeometry width="100" height="100" relative="1" as="geometry">
            <mxPoint x="334" y="620" as="sourcePoint" />
            <mxPoint x="348" y="800" as="targetPoint" />
          </mxGeometry>
        </mxCell>
        <mxCell id="Eqk65JBAvaqVF8tpkQBq-123" value="" style="elbow=horizontal;strokeColor=#990000;strokeWidth=2;exitX=0.5;exitY=0;exitDx=0;exitDy=0;entryX=0.5;entryY=1;entryDx=0;entryDy=0;" edge="1" parent="1" source="Eqk65JBAvaqVF8tpkQBq-121" target="Eqk65JBAvaqVF8tpkQBq-96">
          <mxGeometry width="100" height="100" relative="1" as="geometry">
            <mxPoint x="344" y="630" as="sourcePoint" />
            <mxPoint x="358" y="810" as="targetPoint" />
          </mxGeometry>
        </mxCell>
        <mxCell id="Eqk65JBAvaqVF8tpkQBq-124" value="" style="elbow=horizontal;strokeColor=#990000;strokeWidth=2;entryX=0.5;entryY=1;entryDx=0;entryDy=0;" edge="1" parent="1" target="Eqk65JBAvaqVF8tpkQBq-99">
          <mxGeometry width="100" height="100" relative="1" as="geometry">
            <mxPoint x="480" y="110" as="sourcePoint" />
            <mxPoint x="475" y="65" as="targetPoint" />
          </mxGeometry>
        </mxCell>
        <mxCell id="Eqk65JBAvaqVF8tpkQBq-125" value="" style="elbow=horizontal;strokeColor=#990000;strokeWidth=2;exitX=0.5;exitY=0;exitDx=0;exitDy=0;entryX=0.5;entryY=1;entryDx=0;entryDy=0;" edge="1" parent="1" source="Eqk65JBAvaqVF8tpkQBq-121" target="Eqk65JBAvaqVF8tpkQBq-105">
          <mxGeometry width="100" height="100" relative="1" as="geometry">
            <mxPoint x="499" y="130" as="sourcePoint" />
            <mxPoint x="485" y="75" as="targetPoint" />
          </mxGeometry>
        </mxCell>
        <mxCell id="Eqk65JBAvaqVF8tpkQBq-126" value="" style="elbow=horizontal;strokeColor=#990000;strokeWidth=2;exitX=0.5;exitY=1;exitDx=0;exitDy=0;entryX=0.5;entryY=0;entryDx=0;entryDy=0;" edge="1" parent="1" source="Eqk65JBAvaqVF8tpkQBq-121" target="Eqk65JBAvaqVF8tpkQBq-100">
          <mxGeometry width="100" height="100" relative="1" as="geometry">
            <mxPoint x="509" y="140" as="sourcePoint" />
            <mxPoint x="495" y="85" as="targetPoint" />
          </mxGeometry>
        </mxCell>
        <mxCell id="Eqk65JBAvaqVF8tpkQBq-127" value="" style="elbow=horizontal;strokeColor=#990000;strokeWidth=2;exitX=0.5;exitY=1;exitDx=0;exitDy=0;entryX=0.5;entryY=0;entryDx=0;entryDy=0;" edge="1" parent="1" source="Eqk65JBAvaqVF8tpkQBq-100" target="Eqk65JBAvaqVF8tpkQBq-106">
          <mxGeometry width="100" height="100" relative="1" as="geometry">
            <mxPoint x="519" y="150" as="sourcePoint" />
            <mxPoint x="600" y="280" as="targetPoint" />
          </mxGeometry>
        </mxCell>
        <mxCell id="Eqk65JBAvaqVF8tpkQBq-128" value="" style="elbow=horizontal;strokeColor=#990000;strokeWidth=2;exitX=0.5;exitY=1;exitDx=0;exitDy=0;entryX=0.5;entryY=0;entryDx=0;entryDy=0;" edge="1" parent="1" source="Eqk65JBAvaqVF8tpkQBq-106" target="Eqk65JBAvaqVF8tpkQBq-102">
          <mxGeometry width="100" height="100" relative="1" as="geometry">
            <mxPoint x="230" y="260" as="sourcePoint" />
            <mxPoint x="190" y="380" as="targetPoint" />
          </mxGeometry>
        </mxCell>
        <mxCell id="Eqk65JBAvaqVF8tpkQBq-129" value="" style="elbow=horizontal;strokeColor=#990000;strokeWidth=2;exitX=0.5;exitY=1;exitDx=0;exitDy=0;entryX=0.5;entryY=0;entryDx=0;entryDy=0;" edge="1" parent="1" source="Eqk65JBAvaqVF8tpkQBq-106" target="Eqk65JBAvaqVF8tpkQBq-101">
          <mxGeometry width="100" height="100" relative="1" as="geometry">
            <mxPoint x="240" y="270" as="sourcePoint" />
            <mxPoint x="200" y="390" as="targetPoint" />
          </mxGeometry>
        </mxCell>
        <mxCell id="Eqk65JBAvaqVF8tpkQBq-130" value="" style="elbow=horizontal;strokeColor=#990000;strokeWidth=2;entryX=0.5;entryY=0;entryDx=0;entryDy=0;" edge="1" parent="1" target="Eqk65JBAvaqVF8tpkQBq-104">
          <mxGeometry width="100" height="100" relative="1" as="geometry">
            <mxPoint x="480" y="400" as="sourcePoint" />
            <mxPoint x="210" y="400" as="targetPoint" />
          </mxGeometry>
        </mxCell>
        <mxCell id="Eqk65JBAvaqVF8tpkQBq-131" value="" style="elbow=horizontal;strokeColor=#990000;strokeWidth=2;exitX=0.5;exitY=1;exitDx=0;exitDy=0;entryX=0.5;entryY=0;entryDx=0;entryDy=0;" edge="1" parent="1" source="Eqk65JBAvaqVF8tpkQBq-106" target="Eqk65JBAvaqVF8tpkQBq-103">
          <mxGeometry width="100" height="100" relative="1" as="geometry">
            <mxPoint x="260" y="290" as="sourcePoint" />
            <mxPoint x="220" y="410" as="targetPoint" />
          </mxGeometry>
        </mxCell>
        <mxCell id="Eqk65JBAvaqVF8tpkQBq-132" value="" style="elbow=horizontal;strokeColor=#990000;strokeWidth=2;exitX=0.5;exitY=1;exitDx=0;exitDy=0;entryX=0.5;entryY=1;entryDx=0;entryDy=0;edgeStyle=orthogonalEdgeStyle;" edge="1" parent="1" source="Eqk65JBAvaqVF8tpkQBq-109" target="Eqk65JBAvaqVF8tpkQBq-107">
          <mxGeometry width="100" height="100" relative="1" as="geometry">
            <mxPoint x="489" y="410" as="sourcePoint" />
            <mxPoint x="225" y="550" as="targetPoint" />
            <Array as="points">
              <mxPoint x="675" y="930" />
              <mxPoint x="338" y="930" />
            </Array>
          </mxGeometry>
        </mxCell>
        <mxCell id="Eqk65JBAvaqVF8tpkQBq-133" value="&lt;p style=&quot;margin: 0px; margin-top: 4px; text-align: center; text-decoration: underline;&quot;&gt;&lt;strong&gt;LineEdit&lt;/strong&gt;&lt;/p&gt;&lt;p style=&quot;margin: 0px; margin-top: 4px; text-align: center; text-decoration: underline;&quot;&gt;&lt;strong&gt;&lt;br&gt;&lt;/strong&gt;&lt;/p&gt;&lt;hr&gt;&lt;p style=&quot;margin: 0px; margin-left: 8px;&quot;&gt;XXX&lt;/p&gt;" style="verticalAlign=middle;align=center;overflow=fill;fontSize=12;fontFamily=Helvetica;html=1;rounded=1;fontStyle=1;strokeWidth=3;fillColor=#E6FFCC" vertex="1" parent="1">
          <mxGeometry x="619.9999999999999" y="960" width="110" height="90" as="geometry" />
        </mxCell>
        <mxCell id="Eqk65JBAvaqVF8tpkQBq-134" value="" style="elbow=horizontal;strokeColor=#990000;strokeWidth=2;exitX=0.5;exitY=1;exitDx=0;exitDy=0;entryX=0.5;entryY=0;entryDx=0;entryDy=0;" edge="1" parent="1" source="Eqk65JBAvaqVF8tpkQBq-109" target="Eqk65JBAvaqVF8tpkQBq-133">
          <mxGeometry width="100" height="100" relative="1" as="geometry">
            <mxPoint x="629" y="610" as="sourcePoint" />
            <mxPoint x="788" y="800" as="targetPoint" />
          </mxGeometry>
        </mxCell>
      </root>
    </mxGraphModel>
  </diagram>
</mxfile>
